<mxfile host="app.diagrams.net" agent="Mozilla/5.0 (Windows NT 10.0; Win64; x64) AppleWebKit/537.36 (KHTML, like Gecko) Chrome/131.0.0.0 Safari/537.36 Edg/131.0.0.0" version="25.0.3">
  <diagram name="Page-1" id="V1T5ub4eXaLLm83vhyxi">
    <mxGraphModel dx="1347" dy="2039" grid="1" gridSize="10" guides="1" tooltips="1" connect="1" arrows="1" fold="1" page="1" pageScale="1" pageWidth="850" pageHeight="1100" math="0" shadow="0">
      <root>
        <mxCell id="0" />
        <mxCell id="1" parent="0" />
        <mxCell id="JW1Y3XpuhCUsItWBqjoq-34" style="edgeStyle=orthogonalEdgeStyle;rounded=0;orthogonalLoop=1;jettySize=auto;html=1;exitX=0.5;exitY=0;exitDx=0;exitDy=0;endArrow=block;endFill=0;endSize=12;" parent="1" source="gm6i85_HgCSPow5HQ9hL-7" target="JW1Y3XpuhCUsItWBqjoq-13" edge="1">
          <mxGeometry relative="1" as="geometry">
            <mxPoint x="410" y="-90" as="sourcePoint" />
          </mxGeometry>
        </mxCell>
        <mxCell id="JW1Y3XpuhCUsItWBqjoq-33" style="edgeStyle=orthogonalEdgeStyle;rounded=0;orthogonalLoop=1;jettySize=auto;html=1;exitX=0.5;exitY=0;exitDx=0;exitDy=0;endArrow=block;endFill=0;endSize=12;entryX=0.5;entryY=1;entryDx=0;entryDy=0;" parent="1" source="gm6i85_HgCSPow5HQ9hL-2" target="gm6i85_HgCSPow5HQ9hL-7" edge="1">
          <mxGeometry relative="1" as="geometry">
            <mxPoint x="240" y="100" as="sourcePoint" />
            <mxPoint x="410" y="34" as="targetPoint" />
          </mxGeometry>
        </mxCell>
        <mxCell id="JW1Y3XpuhCUsItWBqjoq-37" style="edgeStyle=orthogonalEdgeStyle;rounded=0;orthogonalLoop=1;jettySize=auto;html=1;exitX=0.5;exitY=0;exitDx=0;exitDy=0;entryX=0;entryY=0.5;entryDx=0;entryDy=0;endArrow=block;endFill=0;endSize=12;" parent="1" source="JW1Y3XpuhCUsItWBqjoq-5" target="JW1Y3XpuhCUsItWBqjoq-14" edge="1">
          <mxGeometry relative="1" as="geometry" />
        </mxCell>
        <mxCell id="JW1Y3XpuhCUsItWBqjoq-5" value="Basket" style="swimlane;fontStyle=1;align=center;verticalAlign=top;childLayout=stackLayout;horizontal=1;startSize=26;horizontalStack=0;resizeParent=1;resizeParentMax=0;resizeLast=0;collapsible=1;marginBottom=0;whiteSpace=wrap;html=1;" parent="1" vertex="1">
          <mxGeometry x="30" y="-53" width="190" height="150" as="geometry" />
        </mxCell>
        <mxCell id="JW1Y3XpuhCUsItWBqjoq-7" value="" style="line;strokeWidth=1;fillColor=none;align=left;verticalAlign=middle;spacingTop=-1;spacingLeft=3;spacingRight=3;rotatable=0;labelPosition=right;points=[];portConstraint=eastwest;strokeColor=inherit;" parent="JW1Y3XpuhCUsItWBqjoq-5" vertex="1">
          <mxGeometry y="26" width="190" height="8" as="geometry" />
        </mxCell>
        <mxCell id="JW1Y3XpuhCUsItWBqjoq-8" value="- Basket(x: int, y: int, width: int, height: int, image: Image)&lt;div&gt;+ generateBasket(&lt;span style=&quot;background-color: initial;&quot;&gt;x: int, y: int, width: int, height: int&lt;/span&gt;&lt;span style=&quot;background-color: initial;&quot;&gt;): Basket {static}&lt;/span&gt;&lt;/div&gt;&lt;div&gt;&lt;span style=&quot;background-color: initial;&quot;&gt;+ collidesWithYogi(other: GameComponet): boolean&lt;/span&gt;&lt;/div&gt;" style="text;strokeColor=none;fillColor=none;align=left;verticalAlign=top;spacingLeft=4;spacingRight=4;overflow=hidden;rotatable=0;points=[[0,0.5],[1,0.5]];portConstraint=eastwest;whiteSpace=wrap;html=1;" parent="JW1Y3XpuhCUsItWBqjoq-5" vertex="1">
          <mxGeometry y="34" width="190" height="116" as="geometry" />
        </mxCell>
        <mxCell id="JW1Y3XpuhCUsItWBqjoq-13" value="&lt;div&gt;&lt;span style=&quot;background-color: initial;&quot;&gt;GameComponent&lt;/span&gt;&lt;/div&gt;" style="swimlane;fontStyle=1;align=center;verticalAlign=top;childLayout=stackLayout;horizontal=1;startSize=30;horizontalStack=0;resizeParent=1;resizeParentMax=0;resizeLast=0;collapsible=1;marginBottom=0;whiteSpace=wrap;html=1;" parent="1" vertex="1">
          <mxGeometry x="320" y="-430" width="210" height="200" as="geometry" />
        </mxCell>
        <mxCell id="JW1Y3XpuhCUsItWBqjoq-14" value="&lt;div&gt;&lt;span style=&quot;background-color: initial;&quot;&gt;# type: String { GETTER }&lt;/span&gt;&lt;/div&gt;&lt;div&gt;# image: Image { GETTER }&lt;/div&gt;&lt;div&gt;# x: int&amp;nbsp;&lt;span style=&quot;background-color: initial;&quot;&gt;{ GETTER }&lt;/span&gt;&lt;/div&gt;&lt;div&gt;# y: int&amp;nbsp;&lt;span style=&quot;background-color: initial;&quot;&gt;{ GETTER }&lt;/span&gt;&lt;/div&gt;&lt;div&gt;# width: int&amp;nbsp;&lt;span style=&quot;background-color: initial;&quot;&gt;{ GETTER }&lt;/span&gt;&lt;/div&gt;&lt;div&gt;# height: int&amp;nbsp;&lt;span style=&quot;background-color: initial;&quot;&gt;{ GETTER }&lt;/span&gt;&lt;/div&gt;" style="text;strokeColor=none;fillColor=none;align=left;verticalAlign=top;spacingLeft=4;spacingRight=4;overflow=hidden;rotatable=0;points=[[0,0.5],[1,0.5]];portConstraint=eastwest;whiteSpace=wrap;html=1;" parent="JW1Y3XpuhCUsItWBqjoq-13" vertex="1">
          <mxGeometry y="30" width="210" height="90" as="geometry" />
        </mxCell>
        <mxCell id="JW1Y3XpuhCUsItWBqjoq-15" value="" style="line;strokeWidth=1;fillColor=none;align=left;verticalAlign=middle;spacingTop=-1;spacingLeft=3;spacingRight=3;rotatable=0;labelPosition=right;points=[];portConstraint=eastwest;strokeColor=inherit;" parent="JW1Y3XpuhCUsItWBqjoq-13" vertex="1">
          <mxGeometry y="120" width="210" height="8" as="geometry" />
        </mxCell>
        <mxCell id="JW1Y3XpuhCUsItWBqjoq-16" value="&lt;div&gt;+ GameComponent(type: String, x: int, y: int, width: int, height: int, image: Image)&lt;/div&gt;&lt;div&gt;+ draw(g: Graphics): void&amp;nbsp;&lt;/div&gt;&lt;div&gt;&lt;br&gt;&lt;/div&gt;" style="text;strokeColor=none;fillColor=none;align=left;verticalAlign=top;spacingLeft=4;spacingRight=4;overflow=hidden;rotatable=0;points=[[0,0.5],[1,0.5]];portConstraint=eastwest;whiteSpace=wrap;html=1;" parent="JW1Y3XpuhCUsItWBqjoq-13" vertex="1">
          <mxGeometry y="128" width="210" height="72" as="geometry" />
        </mxCell>
        <mxCell id="JW1Y3XpuhCUsItWBqjoq-32" style="edgeStyle=orthogonalEdgeStyle;rounded=0;orthogonalLoop=1;jettySize=auto;html=1;exitX=0.5;exitY=0;exitDx=0;exitDy=0;endArrow=block;endFill=0;endSize=12;entryX=0.5;entryY=1;entryDx=0;entryDy=0;" parent="1" source="JW1Y3XpuhCUsItWBqjoq-17" target="gm6i85_HgCSPow5HQ9hL-7" edge="1">
          <mxGeometry relative="1" as="geometry">
            <mxPoint x="410" y="34" as="targetPoint" />
          </mxGeometry>
        </mxCell>
        <mxCell id="JW1Y3XpuhCUsItWBqjoq-17" value="Ranger" style="swimlane;fontStyle=1;align=center;verticalAlign=top;childLayout=stackLayout;horizontal=1;startSize=26;horizontalStack=0;resizeParent=1;resizeParentMax=0;resizeLast=0;collapsible=1;marginBottom=0;whiteSpace=wrap;html=1;" parent="1" vertex="1">
          <mxGeometry x="380" y="130" width="230" height="170" as="geometry" />
        </mxCell>
        <mxCell id="JW1Y3XpuhCUsItWBqjoq-18" value="- directon: int" style="text;strokeColor=none;fillColor=none;align=left;verticalAlign=top;spacingLeft=4;spacingRight=4;overflow=hidden;rotatable=0;points=[[0,0.5],[1,0.5]];portConstraint=eastwest;whiteSpace=wrap;html=1;" parent="JW1Y3XpuhCUsItWBqjoq-17" vertex="1">
          <mxGeometry y="26" width="230" height="26" as="geometry" />
        </mxCell>
        <mxCell id="JW1Y3XpuhCUsItWBqjoq-19" value="" style="line;strokeWidth=1;fillColor=none;align=left;verticalAlign=middle;spacingTop=-1;spacingLeft=3;spacingRight=3;rotatable=0;labelPosition=right;points=[];portConstraint=eastwest;strokeColor=inherit;" parent="JW1Y3XpuhCUsItWBqjoq-17" vertex="1">
          <mxGeometry y="52" width="230" height="8" as="geometry" />
        </mxCell>
        <mxCell id="JW1Y3XpuhCUsItWBqjoq-20" value="+ generateRanger(x: int,&amp;nbsp; y: int, width: int, height: int, direction: int): ranger {static}&lt;div&gt;- Ranger(&lt;span style=&quot;background-color: initial;&quot;&gt;x: int,&amp;nbsp; y: int, width: int, height: int, image: Image, direction: int&lt;/span&gt;&lt;span style=&quot;background-color: initial;&quot;&gt;)&lt;/span&gt;&lt;/div&gt;&lt;div&gt;&lt;span style=&quot;background-color: initial;&quot;&gt;+ move(): void&lt;/span&gt;&lt;/div&gt;&lt;div&gt;- invertVel(): void&lt;/div&gt;&lt;div&gt;- collides(other: GameCompoent): String&lt;/div&gt;" style="text;strokeColor=none;fillColor=none;align=left;verticalAlign=top;spacingLeft=4;spacingRight=4;overflow=hidden;rotatable=0;points=[[0,0.5],[1,0.5]];portConstraint=eastwest;whiteSpace=wrap;html=1;" parent="JW1Y3XpuhCUsItWBqjoq-17" vertex="1">
          <mxGeometry y="60" width="230" height="110" as="geometry" />
        </mxCell>
        <mxCell id="gm6i85_HgCSPow5HQ9hL-17" style="edgeStyle=orthogonalEdgeStyle;rounded=0;orthogonalLoop=1;jettySize=auto;html=1;entryX=1;entryY=0.5;entryDx=0;entryDy=0;endArrow=block;endFill=0;endSize=12;" edge="1" parent="1" source="JW1Y3XpuhCUsItWBqjoq-21" target="gm6i85_HgCSPow5HQ9hL-14">
          <mxGeometry relative="1" as="geometry" />
        </mxCell>
        <mxCell id="JW1Y3XpuhCUsItWBqjoq-21" value="Tree" style="swimlane;fontStyle=1;align=center;verticalAlign=top;childLayout=stackLayout;horizontal=1;startSize=26;horizontalStack=0;resizeParent=1;resizeParentMax=0;resizeLast=0;collapsible=1;marginBottom=0;whiteSpace=wrap;html=1;" parent="1" vertex="1">
          <mxGeometry x="750" y="190" width="200" height="100" as="geometry" />
        </mxCell>
        <mxCell id="JW1Y3XpuhCUsItWBqjoq-23" value="" style="line;strokeWidth=1;fillColor=none;align=left;verticalAlign=middle;spacingTop=-1;spacingLeft=3;spacingRight=3;rotatable=0;labelPosition=right;points=[];portConstraint=eastwest;strokeColor=inherit;" parent="JW1Y3XpuhCUsItWBqjoq-21" vertex="1">
          <mxGeometry y="26" width="200" height="8" as="geometry" />
        </mxCell>
        <mxCell id="JW1Y3XpuhCUsItWBqjoq-24" value="- Tree(x: int, y: int, width: int, height: int, image: Image)&lt;div&gt;+ generateTree(&lt;span style=&quot;background-color: initial;&quot;&gt;x: int, y: int, width: int, height: int&lt;/span&gt;&lt;span style=&quot;background-color: initial;&quot;&gt;): Tree {static}&lt;/span&gt;&lt;/div&gt;" style="text;strokeColor=none;fillColor=none;align=left;verticalAlign=top;spacingLeft=4;spacingRight=4;overflow=hidden;rotatable=0;points=[[0,0.5],[1,0.5]];portConstraint=eastwest;whiteSpace=wrap;html=1;" parent="JW1Y3XpuhCUsItWBqjoq-21" vertex="1">
          <mxGeometry y="34" width="200" height="66" as="geometry" />
        </mxCell>
        <mxCell id="gm6i85_HgCSPow5HQ9hL-16" style="edgeStyle=orthogonalEdgeStyle;rounded=0;orthogonalLoop=1;jettySize=auto;html=1;exitX=0.5;exitY=0;exitDx=0;exitDy=0;entryX=0;entryY=0.5;entryDx=0;entryDy=0;endArrow=block;endFill=0;endSize=12;" edge="1" parent="1" source="JW1Y3XpuhCUsItWBqjoq-25" target="gm6i85_HgCSPow5HQ9hL-14">
          <mxGeometry relative="1" as="geometry" />
        </mxCell>
        <mxCell id="JW1Y3XpuhCUsItWBqjoq-25" value="Mountain" style="swimlane;fontStyle=1;align=center;verticalAlign=top;childLayout=stackLayout;horizontal=1;startSize=26;horizontalStack=0;resizeParent=1;resizeParentMax=0;resizeLast=0;collapsible=1;marginBottom=0;whiteSpace=wrap;html=1;" parent="1" vertex="1">
          <mxGeometry x="590" y="320" width="210" height="120" as="geometry" />
        </mxCell>
        <mxCell id="JW1Y3XpuhCUsItWBqjoq-27" value="" style="line;strokeWidth=1;fillColor=none;align=left;verticalAlign=middle;spacingTop=-1;spacingLeft=3;spacingRight=3;rotatable=0;labelPosition=right;points=[];portConstraint=eastwest;strokeColor=inherit;" parent="JW1Y3XpuhCUsItWBqjoq-25" vertex="1">
          <mxGeometry y="26" width="210" height="8" as="geometry" />
        </mxCell>
        <mxCell id="JW1Y3XpuhCUsItWBqjoq-28" value="- Mountain(x: int, y: int, width: int, height: int, image: Image)&lt;div&gt;+ generateMountain(&lt;span style=&quot;background-color: initial;&quot;&gt;x: int, y: int, width: int, height: int&lt;/span&gt;&lt;span style=&quot;background-color: initial;&quot;&gt;): Mountain {static}&lt;/span&gt;&lt;/div&gt;" style="text;strokeColor=none;fillColor=none;align=left;verticalAlign=top;spacingLeft=4;spacingRight=4;overflow=hidden;rotatable=0;points=[[0,0.5],[1,0.5]];portConstraint=eastwest;whiteSpace=wrap;html=1;" parent="JW1Y3XpuhCUsItWBqjoq-25" vertex="1">
          <mxGeometry y="34" width="210" height="86" as="geometry" />
        </mxCell>
        <mxCell id="Aqfv4AWS69Kue3A25FG4-24" style="edgeStyle=orthogonalEdgeStyle;rounded=0;orthogonalLoop=1;jettySize=auto;html=1;exitX=0.5;exitY=0;exitDx=0;exitDy=0;endArrow=diamondThin;endFill=0;endSize=12;" parent="1" source="Aqfv4AWS69Kue3A25FG4-7" target="Aqfv4AWS69Kue3A25FG4-11" edge="1">
          <mxGeometry relative="1" as="geometry" />
        </mxCell>
        <mxCell id="Aqfv4AWS69Kue3A25FG4-7" value="YogiGameModule" style="swimlane;fontStyle=1;align=center;verticalAlign=top;childLayout=stackLayout;horizontal=1;startSize=26;horizontalStack=0;resizeParent=1;resizeParentMax=0;resizeLast=0;collapsible=1;marginBottom=0;whiteSpace=wrap;html=1;" parent="1" vertex="1">
          <mxGeometry x="1040" y="20" width="210" height="150" as="geometry" />
        </mxCell>
        <mxCell id="Aqfv4AWS69Kue3A25FG4-8" value="+ field: type" style="text;strokeColor=none;fillColor=none;align=left;verticalAlign=top;spacingLeft=4;spacingRight=4;overflow=hidden;rotatable=0;points=[[0,0.5],[1,0.5]];portConstraint=eastwest;whiteSpace=wrap;html=1;" parent="Aqfv4AWS69Kue3A25FG4-7" vertex="1">
          <mxGeometry y="26" width="210" height="26" as="geometry" />
        </mxCell>
        <mxCell id="Aqfv4AWS69Kue3A25FG4-9" value="" style="line;strokeWidth=1;fillColor=none;align=left;verticalAlign=middle;spacingTop=-1;spacingLeft=3;spacingRight=3;rotatable=0;labelPosition=right;points=[];portConstraint=eastwest;strokeColor=inherit;" parent="Aqfv4AWS69Kue3A25FG4-7" vertex="1">
          <mxGeometry y="52" width="210" height="8" as="geometry" />
        </mxCell>
        <mxCell id="Aqfv4AWS69Kue3A25FG4-10" value="- checkYogiLanCollision():&amp;nbsp; boolean&lt;div&gt;- checkYogiCaptured(): boolean&lt;/div&gt;" style="text;strokeColor=none;fillColor=none;align=left;verticalAlign=top;spacingLeft=4;spacingRight=4;overflow=hidden;rotatable=0;points=[[0,0.5],[1,0.5]];portConstraint=eastwest;whiteSpace=wrap;html=1;" parent="Aqfv4AWS69Kue3A25FG4-7" vertex="1">
          <mxGeometry y="60" width="210" height="90" as="geometry" />
        </mxCell>
        <mxCell id="Aqfv4AWS69Kue3A25FG4-25" style="edgeStyle=orthogonalEdgeStyle;rounded=0;orthogonalLoop=1;jettySize=auto;html=1;exitX=1;exitY=0.25;exitDx=0;exitDy=0;entryX=0.5;entryY=1;entryDx=0;entryDy=0;" parent="1" source="Aqfv4AWS69Kue3A25FG4-11" target="Aqfv4AWS69Kue3A25FG4-19" edge="1">
          <mxGeometry relative="1" as="geometry">
            <mxPoint x="1115" y="-331" as="targetPoint" />
          </mxGeometry>
        </mxCell>
        <mxCell id="Aqfv4AWS69Kue3A25FG4-11" value="YogiGameGUI" style="swimlane;fontStyle=1;align=center;verticalAlign=top;childLayout=stackLayout;horizontal=1;startSize=26;horizontalStack=0;resizeParent=1;resizeParentMax=0;resizeLast=0;collapsible=1;marginBottom=0;whiteSpace=wrap;html=1;" parent="1" vertex="1">
          <mxGeometry x="900" y="-310" width="160" height="86" as="geometry" />
        </mxCell>
        <mxCell id="Aqfv4AWS69Kue3A25FG4-12" value="+ field: type" style="text;strokeColor=none;fillColor=none;align=left;verticalAlign=top;spacingLeft=4;spacingRight=4;overflow=hidden;rotatable=0;points=[[0,0.5],[1,0.5]];portConstraint=eastwest;whiteSpace=wrap;html=1;" parent="Aqfv4AWS69Kue3A25FG4-11" vertex="1">
          <mxGeometry y="26" width="160" height="26" as="geometry" />
        </mxCell>
        <mxCell id="Aqfv4AWS69Kue3A25FG4-13" value="" style="line;strokeWidth=1;fillColor=none;align=left;verticalAlign=middle;spacingTop=-1;spacingLeft=3;spacingRight=3;rotatable=0;labelPosition=right;points=[];portConstraint=eastwest;strokeColor=inherit;" parent="Aqfv4AWS69Kue3A25FG4-11" vertex="1">
          <mxGeometry y="52" width="160" height="8" as="geometry" />
        </mxCell>
        <mxCell id="Aqfv4AWS69Kue3A25FG4-14" value="+ method(type): type" style="text;strokeColor=none;fillColor=none;align=left;verticalAlign=top;spacingLeft=4;spacingRight=4;overflow=hidden;rotatable=0;points=[[0,0.5],[1,0.5]];portConstraint=eastwest;whiteSpace=wrap;html=1;" parent="Aqfv4AWS69Kue3A25FG4-11" vertex="1">
          <mxGeometry y="60" width="160" height="26" as="geometry" />
        </mxCell>
        <mxCell id="Aqfv4AWS69Kue3A25FG4-15" value="StartingMenu" style="swimlane;fontStyle=1;align=center;verticalAlign=top;childLayout=stackLayout;horizontal=1;startSize=26;horizontalStack=0;resizeParent=1;resizeParentMax=0;resizeLast=0;collapsible=1;marginBottom=0;whiteSpace=wrap;html=1;" parent="1" vertex="1">
          <mxGeometry x="1060" y="-150" width="160" height="60" as="geometry" />
        </mxCell>
        <mxCell id="Aqfv4AWS69Kue3A25FG4-17" value="" style="line;strokeWidth=1;fillColor=none;align=left;verticalAlign=middle;spacingTop=-1;spacingLeft=3;spacingRight=3;rotatable=0;labelPosition=right;points=[];portConstraint=eastwest;strokeColor=inherit;" parent="Aqfv4AWS69Kue3A25FG4-15" vertex="1">
          <mxGeometry y="26" width="160" height="8" as="geometry" />
        </mxCell>
        <mxCell id="Aqfv4AWS69Kue3A25FG4-18" value="+ method(type): type" style="text;strokeColor=none;fillColor=none;align=left;verticalAlign=top;spacingLeft=4;spacingRight=4;overflow=hidden;rotatable=0;points=[[0,0.5],[1,0.5]];portConstraint=eastwest;whiteSpace=wrap;html=1;" parent="Aqfv4AWS69Kue3A25FG4-15" vertex="1">
          <mxGeometry y="34" width="160" height="26" as="geometry" />
        </mxCell>
        <mxCell id="Aqfv4AWS69Kue3A25FG4-19" value="RestartMenu" style="swimlane;fontStyle=1;align=center;verticalAlign=top;childLayout=stackLayout;horizontal=1;startSize=26;horizontalStack=0;resizeParent=1;resizeParentMax=0;resizeLast=0;collapsible=1;marginBottom=0;whiteSpace=wrap;html=1;" parent="1" vertex="1">
          <mxGeometry x="1100" y="-370" width="160" height="60" as="geometry" />
        </mxCell>
        <mxCell id="Aqfv4AWS69Kue3A25FG4-21" value="" style="line;strokeWidth=1;fillColor=none;align=left;verticalAlign=middle;spacingTop=-1;spacingLeft=3;spacingRight=3;rotatable=0;labelPosition=right;points=[];portConstraint=eastwest;strokeColor=inherit;" parent="Aqfv4AWS69Kue3A25FG4-19" vertex="1">
          <mxGeometry y="26" width="160" height="8" as="geometry" />
        </mxCell>
        <mxCell id="Aqfv4AWS69Kue3A25FG4-22" value="+ method(type): type" style="text;strokeColor=none;fillColor=none;align=left;verticalAlign=top;spacingLeft=4;spacingRight=4;overflow=hidden;rotatable=0;points=[[0,0.5],[1,0.5]];portConstraint=eastwest;whiteSpace=wrap;html=1;" parent="Aqfv4AWS69Kue3A25FG4-19" vertex="1">
          <mxGeometry y="34" width="160" height="26" as="geometry" />
        </mxCell>
        <mxCell id="Aqfv4AWS69Kue3A25FG4-26" style="edgeStyle=orthogonalEdgeStyle;rounded=0;orthogonalLoop=1;jettySize=auto;html=1;exitX=1;exitY=0.5;exitDx=0;exitDy=0;entryX=0.5;entryY=0;entryDx=0;entryDy=0;" parent="1" source="Aqfv4AWS69Kue3A25FG4-14" target="Aqfv4AWS69Kue3A25FG4-15" edge="1">
          <mxGeometry relative="1" as="geometry">
            <mxPoint x="1115" y="-171" as="targetPoint" />
          </mxGeometry>
        </mxCell>
        <mxCell id="_yU-8EtJCTcdnknjxa69-12" style="edgeStyle=orthogonalEdgeStyle;rounded=0;orthogonalLoop=1;jettySize=auto;html=1;entryX=0.5;entryY=0;entryDx=0;entryDy=0;startArrow=block;startFill=0;endArrow=none;endFill=0;startSize=12;" parent="1" source="_yU-8EtJCTcdnknjxa69-11" target="Aqfv4AWS69Kue3A25FG4-11" edge="1">
          <mxGeometry relative="1" as="geometry" />
        </mxCell>
        <mxCell id="_yU-8EtJCTcdnknjxa69-11" value="&lt;b&gt;JFrame&lt;/b&gt;" style="html=1;whiteSpace=wrap;" parent="1" vertex="1">
          <mxGeometry x="925" y="-405" width="110" height="50" as="geometry" />
        </mxCell>
        <mxCell id="gm6i85_HgCSPow5HQ9hL-2" value="YogiBeaer" style="swimlane;fontStyle=1;align=center;verticalAlign=top;childLayout=stackLayout;horizontal=1;startSize=26;horizontalStack=0;resizeParent=1;resizeParentMax=0;resizeLast=0;collapsible=1;marginBottom=0;whiteSpace=wrap;html=1;" vertex="1" parent="1">
          <mxGeometry x="130" y="130" width="220" height="220" as="geometry" />
        </mxCell>
        <mxCell id="gm6i85_HgCSPow5HQ9hL-3" value="- previousX: int&lt;div&gt;- previousY: int&lt;/div&gt;" style="text;strokeColor=none;fillColor=none;align=left;verticalAlign=top;spacingLeft=4;spacingRight=4;overflow=hidden;rotatable=0;points=[[0,0.5],[1,0.5]];portConstraint=eastwest;whiteSpace=wrap;html=1;" vertex="1" parent="gm6i85_HgCSPow5HQ9hL-2">
          <mxGeometry y="26" width="220" height="34" as="geometry" />
        </mxCell>
        <mxCell id="gm6i85_HgCSPow5HQ9hL-4" value="" style="line;strokeWidth=1;fillColor=none;align=left;verticalAlign=middle;spacingTop=-1;spacingLeft=3;spacingRight=3;rotatable=0;labelPosition=right;points=[];portConstraint=eastwest;strokeColor=inherit;" vertex="1" parent="gm6i85_HgCSPow5HQ9hL-2">
          <mxGeometry y="60" width="220" height="8" as="geometry" />
        </mxCell>
        <mxCell id="gm6i85_HgCSPow5HQ9hL-5" value="+ generateYogiBear(x: int, y: int, width: int, height: int): YogiBear{static}&lt;div&gt;- YogiBear(&lt;span style=&quot;background-color: initial;&quot;&gt;x: int, y: int, width: int, height: int, image: Image&lt;/span&gt;&lt;span style=&quot;background-color: initial;&quot;&gt;)&lt;/span&gt;&lt;/div&gt;&lt;div&gt;&lt;span style=&quot;background-color: initial;&quot;&gt;+ move(): void&lt;/span&gt;&lt;/div&gt;&lt;div&gt;&lt;span style=&quot;background-color: initial;&quot;&gt;+ setVelx(): void&amp;nbsp;&lt;/span&gt;&lt;/div&gt;&lt;div&gt;&lt;span style=&quot;background-color: initial;&quot;&gt;+ setVely(): void&lt;/span&gt;&lt;/div&gt;&lt;div&gt;&lt;span style=&quot;background-color: initial;&quot;&gt;+ collides(other: GameComponent): String&lt;/span&gt;&lt;/div&gt;" style="text;strokeColor=none;fillColor=none;align=left;verticalAlign=top;spacingLeft=4;spacingRight=4;overflow=hidden;rotatable=0;points=[[0,0.5],[1,0.5]];portConstraint=eastwest;whiteSpace=wrap;html=1;" vertex="1" parent="gm6i85_HgCSPow5HQ9hL-2">
          <mxGeometry y="68" width="220" height="152" as="geometry" />
        </mxCell>
        <mxCell id="gm6i85_HgCSPow5HQ9hL-7" value="Creature" style="swimlane;fontStyle=1;align=center;verticalAlign=top;childLayout=stackLayout;horizontal=1;startSize=26;horizontalStack=0;resizeParent=1;resizeParentMax=0;resizeLast=0;collapsible=1;marginBottom=0;whiteSpace=wrap;html=1;" vertex="1" parent="1">
          <mxGeometry x="290" y="-78" width="220" height="110" as="geometry" />
        </mxCell>
        <mxCell id="gm6i85_HgCSPow5HQ9hL-8" value="# velx: double&lt;div&gt;# vely: double&lt;/div&gt;" style="text;strokeColor=none;fillColor=none;align=left;verticalAlign=top;spacingLeft=4;spacingRight=4;overflow=hidden;rotatable=0;points=[[0,0.5],[1,0.5]];portConstraint=eastwest;whiteSpace=wrap;html=1;" vertex="1" parent="gm6i85_HgCSPow5HQ9hL-7">
          <mxGeometry y="26" width="220" height="34" as="geometry" />
        </mxCell>
        <mxCell id="gm6i85_HgCSPow5HQ9hL-9" value="" style="line;strokeWidth=1;fillColor=none;align=left;verticalAlign=middle;spacingTop=-1;spacingLeft=3;spacingRight=3;rotatable=0;labelPosition=right;points=[];portConstraint=eastwest;strokeColor=inherit;" vertex="1" parent="gm6i85_HgCSPow5HQ9hL-7">
          <mxGeometry y="60" width="220" height="8" as="geometry" />
        </mxCell>
        <mxCell id="gm6i85_HgCSPow5HQ9hL-10" value="&lt;div&gt;+ Creature(&lt;span style=&quot;background-color: initial;&quot;&gt;x: int,&amp;nbsp; y: int, width: int, height: int, image: Image, direction: int&lt;/span&gt;&lt;span style=&quot;background-color: initial;&quot;&gt;)&lt;/span&gt;&lt;/div&gt;" style="text;strokeColor=none;fillColor=none;align=left;verticalAlign=top;spacingLeft=4;spacingRight=4;overflow=hidden;rotatable=0;points=[[0,0.5],[1,0.5]];portConstraint=eastwest;whiteSpace=wrap;html=1;" vertex="1" parent="gm6i85_HgCSPow5HQ9hL-7">
          <mxGeometry y="68" width="220" height="42" as="geometry" />
        </mxCell>
        <mxCell id="gm6i85_HgCSPow5HQ9hL-18" style="edgeStyle=orthogonalEdgeStyle;rounded=0;orthogonalLoop=1;jettySize=auto;html=1;entryX=1;entryY=0.5;entryDx=0;entryDy=0;endArrow=block;endFill=0;endSize=12;" edge="1" parent="1" source="gm6i85_HgCSPow5HQ9hL-11" target="JW1Y3XpuhCUsItWBqjoq-14">
          <mxGeometry relative="1" as="geometry" />
        </mxCell>
        <mxCell id="gm6i85_HgCSPow5HQ9hL-11" value="Landscape" style="swimlane;fontStyle=1;align=center;verticalAlign=top;childLayout=stackLayout;horizontal=1;startSize=26;horizontalStack=0;resizeParent=1;resizeParentMax=0;resizeLast=0;collapsible=1;marginBottom=0;whiteSpace=wrap;html=1;" vertex="1" parent="1">
          <mxGeometry x="680" y="-76" width="220" height="76" as="geometry" />
        </mxCell>
        <mxCell id="gm6i85_HgCSPow5HQ9hL-13" value="" style="line;strokeWidth=1;fillColor=none;align=left;verticalAlign=middle;spacingTop=-1;spacingLeft=3;spacingRight=3;rotatable=0;labelPosition=right;points=[];portConstraint=eastwest;strokeColor=inherit;" vertex="1" parent="gm6i85_HgCSPow5HQ9hL-11">
          <mxGeometry y="26" width="220" height="8" as="geometry" />
        </mxCell>
        <mxCell id="gm6i85_HgCSPow5HQ9hL-14" value="&lt;div&gt;+ landscape(&lt;span style=&quot;background-color: initial;&quot;&gt;x: int,&amp;nbsp; y: int, width: int, height: int, image: Image, direction: int&lt;/span&gt;&lt;span style=&quot;background-color: initial;&quot;&gt;)&lt;/span&gt;&lt;/div&gt;" style="text;strokeColor=none;fillColor=none;align=left;verticalAlign=top;spacingLeft=4;spacingRight=4;overflow=hidden;rotatable=0;points=[[0,0.5],[1,0.5]];portConstraint=eastwest;whiteSpace=wrap;html=1;" vertex="1" parent="gm6i85_HgCSPow5HQ9hL-11">
          <mxGeometry y="34" width="220" height="42" as="geometry" />
        </mxCell>
      </root>
    </mxGraphModel>
  </diagram>
</mxfile>
